<mxfile host="app.diagrams.net" modified="2023-07-22T11:40:21.142Z" agent="Mozilla/5.0 (X11; Linux x86_64) AppleWebKit/537.36 (KHTML, like Gecko) Chrome/114.0.0.0 Safari/537.36" etag="7TnSQjs6T6DU-uhfOgqJ" version="21.6.5" type="google">
  <diagram name="Page-1" id="Qhbv0L-M8v_GI2V6HR2L">
    <mxGraphModel grid="1" page="1" gridSize="10" guides="1" tooltips="1" connect="1" arrows="1" fold="1" pageScale="1" pageWidth="850" pageHeight="1100" math="0" shadow="0">
      <root>
        <mxCell id="0" />
        <mxCell id="1" parent="0" />
        <mxCell id="AQ2B_PwLkIXll5wLbdg6-1" value="thread_input" style="rounded=1;whiteSpace=wrap;html=1;fillColor=#ffe6cc;strokeColor=#d79b00;" vertex="1" parent="1">
          <mxGeometry x="-40" y="110" width="120" height="60" as="geometry" />
        </mxCell>
        <mxCell id="AQ2B_PwLkIXll5wLbdg6-2" value="thread_output" style="rounded=1;whiteSpace=wrap;html=1;fillColor=#ffe6cc;strokeColor=#d79b00;" vertex="1" parent="1">
          <mxGeometry x="-440" y="110" width="120" height="60" as="geometry" />
        </mxCell>
        <mxCell id="AQ2B_PwLkIXll5wLbdg6-3" value="thread_app" style="rounded=1;whiteSpace=wrap;html=1;fillColor=#ffe6cc;strokeColor=#d79b00;" vertex="1" parent="1">
          <mxGeometry x="360" y="110" width="120" height="60" as="geometry" />
        </mxCell>
        <mxCell id="AQ2B_PwLkIXll5wLbdg6-4" value="thread_network" style="rounded=1;whiteSpace=wrap;html=1;fillColor=#ffe6cc;strokeColor=#d79b00;" vertex="1" parent="1">
          <mxGeometry x="520" y="110" width="120" height="60" as="geometry" />
        </mxCell>
        <mxCell id="AQ2B_PwLkIXll5wLbdg6-5" value="thread_memory" style="rounded=1;whiteSpace=wrap;html=1;fillColor=#ffe6cc;strokeColor=#d79b00;" vertex="1" parent="1">
          <mxGeometry x="680" y="110" width="120" height="60" as="geometry" />
        </mxCell>
        <mxCell id="AQ2B_PwLkIXll5wLbdg6-6" value="hw390" style="rounded=1;whiteSpace=wrap;html=1;fillColor=#e1d5e7;strokeColor=#9673a6;" vertex="1" parent="1">
          <mxGeometry x="-120" y="450" width="120" height="60" as="geometry" />
        </mxCell>
        <mxCell id="AQ2B_PwLkIXll5wLbdg6-7" value="lm20bim7" style="rounded=1;whiteSpace=wrap;html=1;fillColor=#e1d5e7;strokeColor=#9673a6;" vertex="1" parent="1">
          <mxGeometry x="40" y="450" width="120" height="60" as="geometry" />
        </mxCell>
        <mxCell id="AQ2B_PwLkIXll5wLbdg6-8" value="bh1750fvi" style="rounded=1;whiteSpace=wrap;html=1;fillColor=#e1d5e7;strokeColor=#9673a6;" vertex="1" parent="1">
          <mxGeometry x="200" y="450" width="120" height="60" as="geometry" />
        </mxCell>
        <mxCell id="AQ2B_PwLkIXll5wLbdg6-9" value="Hardware dependent functions" style="rounded=1;whiteSpace=wrap;html=1;fillColor=#f5f5f5;fontColor=#333333;strokeColor=#666666;" vertex="1" parent="1">
          <mxGeometry x="-440" y="770" width="1680" height="60" as="geometry" />
        </mxCell>
        <mxCell id="AQ2B_PwLkIXll5wLbdg6-10" value="battery" style="rounded=1;whiteSpace=wrap;html=1;fillColor=#d5e8d4;strokeColor=#82b366;" vertex="1" parent="1">
          <mxGeometry x="-280" y="290" width="120" height="60" as="geometry" />
        </mxCell>
        <mxCell id="AQ2B_PwLkIXll5wLbdg6-11" value="mode" style="rounded=1;whiteSpace=wrap;html=1;fillColor=#d5e8d4;strokeColor=#82b366;" vertex="1" parent="1">
          <mxGeometry x="360" y="290" width="120" height="60" as="geometry" />
        </mxCell>
        <mxCell id="AQ2B_PwLkIXll5wLbdg6-13" value="wifi_wrapper" style="rounded=1;whiteSpace=wrap;html=1;fillColor=#dae8fc;strokeColor=#6c8ebf;" vertex="1" parent="1">
          <mxGeometry x="520" y="610" width="120" height="60" as="geometry" />
        </mxCell>
        <mxCell id="AQ2B_PwLkIXll5wLbdg6-14" value="error" style="rounded=1;whiteSpace=wrap;html=1;fillColor=#d5e8d4;strokeColor=#82b366;" vertex="1" parent="1">
          <mxGeometry x="760" y="290" width="120" height="60" as="geometry" />
        </mxCell>
        <mxCell id="AQ2B_PwLkIXll5wLbdg6-15" value="uart_wrapper" style="rounded=1;whiteSpace=wrap;html=1;fillColor=#dae8fc;strokeColor=#6c8ebf;" vertex="1" parent="1">
          <mxGeometry x="840" y="610" width="120" height="60" as="geometry" />
        </mxCell>
        <mxCell id="AQ2B_PwLkIXll5wLbdg6-16" value="i2c_wrapper" style="rounded=1;whiteSpace=wrap;html=1;fillColor=#dae8fc;strokeColor=#6c8ebf;" vertex="1" parent="1">
          <mxGeometry x="200" y="610" width="120" height="60" as="geometry" />
        </mxCell>
        <mxCell id="AQ2B_PwLkIXll5wLbdg6-17" value="gpio_wrapper" style="rounded=1;whiteSpace=wrap;html=1;fillColor=#dae8fc;strokeColor=#6c8ebf;" vertex="1" parent="1">
          <mxGeometry x="-440" y="610" width="120" height="60" as="geometry" />
        </mxCell>
        <mxCell id="AQ2B_PwLkIXll5wLbdg6-18" value="adc_wrapper" style="rounded=1;whiteSpace=wrap;html=1;fillColor=#dae8fc;strokeColor=#6c8ebf;" vertex="1" parent="1">
          <mxGeometry x="-40" y="610" width="120" height="60" as="geometry" />
        </mxCell>
        <mxCell id="AQ2B_PwLkIXll5wLbdg6-19" value="nvm_wapper" style="rounded=1;whiteSpace=wrap;html=1;fillColor=#dae8fc;strokeColor=#6c8ebf;" vertex="1" parent="1">
          <mxGeometry x="680" y="610" width="120" height="60" as="geometry" />
        </mxCell>
        <mxCell id="AQ2B_PwLkIXll5wLbdg6-21" value="Threads" style="text;html=1;align=center;verticalAlign=middle;whiteSpace=wrap;rounded=0;" vertex="1" parent="1">
          <mxGeometry x="882" y="33" width="60" height="30" as="geometry" />
        </mxCell>
        <mxCell id="AQ2B_PwLkIXll5wLbdg6-22" value="" style="rounded=0;whiteSpace=wrap;html=1;strokeColor=#d79b00;fillColor=#ffe6cc;" vertex="1" parent="1">
          <mxGeometry x="862" y="38" width="20" height="20" as="geometry" />
        </mxCell>
        <mxCell id="AQ2B_PwLkIXll5wLbdg6-23" value="Sensor drivers" style="text;html=1;align=center;verticalAlign=middle;whiteSpace=wrap;rounded=0;" vertex="1" parent="1">
          <mxGeometry x="882" y="63" width="90" height="30" as="geometry" />
        </mxCell>
        <mxCell id="AQ2B_PwLkIXll5wLbdg6-24" value="" style="rounded=0;whiteSpace=wrap;html=1;strokeColor=#9673a6;fillColor=#e1d5e7;" vertex="1" parent="1">
          <mxGeometry x="862" y="68" width="20" height="20" as="geometry" />
        </mxCell>
        <mxCell id="AQ2B_PwLkIXll5wLbdg6-27" value="Wrappers" style="text;html=1;align=center;verticalAlign=middle;whiteSpace=wrap;rounded=0;" vertex="1" parent="1">
          <mxGeometry x="882" y="93" width="70" height="30" as="geometry" />
        </mxCell>
        <mxCell id="AQ2B_PwLkIXll5wLbdg6-28" value="" style="rounded=0;whiteSpace=wrap;html=1;strokeColor=#6c8ebf;fillColor=#dae8fc;" vertex="1" parent="1">
          <mxGeometry x="862" y="98" width="20" height="20" as="geometry" />
        </mxCell>
        <mxCell id="AQ2B_PwLkIXll5wLbdg6-29" value="Other" style="text;html=1;align=center;verticalAlign=middle;whiteSpace=wrap;rounded=0;" vertex="1" parent="1">
          <mxGeometry x="882" y="123" width="50" height="30" as="geometry" />
        </mxCell>
        <mxCell id="AQ2B_PwLkIXll5wLbdg6-30" value="" style="rounded=0;whiteSpace=wrap;html=1;strokeColor=#82b366;fillColor=#d5e8d4;" vertex="1" parent="1">
          <mxGeometry x="862" y="128" width="20" height="20" as="geometry" />
        </mxCell>
        <mxCell id="AQ2B_PwLkIXll5wLbdg6-31" value="&lt;b&gt;&lt;font style=&quot;font-size: 16px;&quot;&gt;Objects:&lt;/font&gt;&lt;/b&gt;" style="text;html=1;align=center;verticalAlign=middle;whiteSpace=wrap;rounded=0;" vertex="1" parent="1">
          <mxGeometry x="862" y="3" width="60" height="30" as="geometry" />
        </mxCell>
        <mxCell id="AQ2B_PwLkIXll5wLbdg6-33" value="" style="endArrow=classic;html=1;rounded=0;entryX=0.5;entryY=0;entryDx=0;entryDy=0;strokeColor=#CCCCCC;" edge="1" parent="1" target="AQ2B_PwLkIXll5wLbdg6-14">
          <mxGeometry width="50" height="50" relative="1" as="geometry">
            <mxPoint x="820" y="250" as="sourcePoint" />
            <mxPoint x="740" y="235" as="targetPoint" />
          </mxGeometry>
        </mxCell>
        <mxCell id="AQ2B_PwLkIXll5wLbdg6-35" value="All objects" style="text;html=1;align=center;verticalAlign=middle;whiteSpace=wrap;rounded=0;" vertex="1" parent="1">
          <mxGeometry x="830" y="250" width="80" height="30" as="geometry" />
        </mxCell>
        <mxCell id="AQ2B_PwLkIXll5wLbdg6-40" value="" style="endArrow=classic;html=1;rounded=0;entryX=0.5;entryY=0;entryDx=0;entryDy=0;exitX=0.5;exitY=1;exitDx=0;exitDy=0;strokeColor=#CCCCCC;" edge="1" parent="1" source="AQ2B_PwLkIXll5wLbdg6-8" target="AQ2B_PwLkIXll5wLbdg6-16">
          <mxGeometry width="50" height="50" relative="1" as="geometry">
            <mxPoint x="90" y="40" as="sourcePoint" />
            <mxPoint x="-380" y="320" as="targetPoint" />
          </mxGeometry>
        </mxCell>
        <mxCell id="AQ2B_PwLkIXll5wLbdg6-48" value="" style="curved=1;endArrow=classic;html=1;rounded=0;exitX=0.5;exitY=1;exitDx=0;exitDy=0;entryX=0.5;entryY=0;entryDx=0;entryDy=0;strokeColor=#CCCCCC;" edge="1" parent="1" source="AQ2B_PwLkIXll5wLbdg6-10" target="AQ2B_PwLkIXll5wLbdg6-18">
          <mxGeometry width="50" height="50" relative="1" as="geometry">
            <mxPoint x="420" y="490" as="sourcePoint" />
            <mxPoint x="470" y="440" as="targetPoint" />
            <Array as="points">
              <mxPoint x="-210" y="580" />
            </Array>
          </mxGeometry>
        </mxCell>
        <mxCell id="AQ2B_PwLkIXll5wLbdg6-55" value="" style="endArrow=classic;html=1;rounded=0;entryX=0.5;entryY=0;entryDx=0;entryDy=0;exitX=0.5;exitY=1;exitDx=0;exitDy=0;strokeColor=#CCCCCC;" edge="1" parent="1" source="AQ2B_PwLkIXll5wLbdg6-5" target="AQ2B_PwLkIXll5wLbdg6-19">
          <mxGeometry width="50" height="50" relative="1" as="geometry">
            <mxPoint x="720" y="250" as="sourcePoint" />
            <mxPoint x="720" y="350" as="targetPoint" />
          </mxGeometry>
        </mxCell>
        <mxCell id="AQ2B_PwLkIXll5wLbdg6-56" value="" style="endArrow=classic;html=1;rounded=0;entryX=0.5;entryY=0;entryDx=0;entryDy=0;exitX=0.5;exitY=1;exitDx=0;exitDy=0;strokeColor=#CCCCCC;" edge="1" parent="1" source="AQ2B_PwLkIXll5wLbdg6-3" target="AQ2B_PwLkIXll5wLbdg6-11">
          <mxGeometry width="50" height="50" relative="1" as="geometry">
            <mxPoint x="-220.59" y="240" as="sourcePoint" />
            <mxPoint x="-220.59" y="340" as="targetPoint" />
          </mxGeometry>
        </mxCell>
        <mxCell id="AQ2B_PwLkIXll5wLbdg6-57" value="" style="endArrow=classic;html=1;rounded=0;entryX=0.5;entryY=0;entryDx=0;entryDy=0;exitX=0.5;exitY=1;exitDx=0;exitDy=0;strokeColor=#CCCCCC;" edge="1" parent="1" source="AQ2B_PwLkIXll5wLbdg6-4" target="AQ2B_PwLkIXll5wLbdg6-13">
          <mxGeometry width="50" height="50" relative="1" as="geometry">
            <mxPoint x="579.29" y="350" as="sourcePoint" />
            <mxPoint x="579.29" y="450" as="targetPoint" />
          </mxGeometry>
        </mxCell>
        <mxCell id="AQ2B_PwLkIXll5wLbdg6-60" value="" style="curved=1;endArrow=classic;html=1;rounded=0;exitX=0.5;exitY=1;exitDx=0;exitDy=0;entryX=0.5;entryY=0;entryDx=0;entryDy=0;strokeColor=#CCCCCC;" edge="1" parent="1" source="AQ2B_PwLkIXll5wLbdg6-14" target="AQ2B_PwLkIXll5wLbdg6-15">
          <mxGeometry width="50" height="50" relative="1" as="geometry">
            <mxPoint x="850" y="370" as="sourcePoint" />
            <mxPoint x="980" y="630" as="targetPoint" />
            <Array as="points">
              <mxPoint x="820" y="430" />
            </Array>
          </mxGeometry>
        </mxCell>
        <mxCell id="AQ2B_PwLkIXll5wLbdg6-61" value="" style="curved=1;endArrow=classic;html=1;rounded=0;exitX=0.5;exitY=1;exitDx=0;exitDy=0;entryX=0.5;entryY=0;entryDx=0;entryDy=0;strokeColor=#CCCCCC;" edge="1" parent="1" source="AQ2B_PwLkIXll5wLbdg6-6" target="AQ2B_PwLkIXll5wLbdg6-18">
          <mxGeometry width="50" height="50" relative="1" as="geometry">
            <mxPoint x="-70" y="540" as="sourcePoint" />
            <mxPoint x="60" y="800" as="targetPoint" />
            <Array as="points">
              <mxPoint x="-60" y="560" />
            </Array>
          </mxGeometry>
        </mxCell>
        <mxCell id="AQ2B_PwLkIXll5wLbdg6-67" value="" style="curved=1;endArrow=classic;html=1;rounded=0;exitX=0.5;exitY=1;exitDx=0;exitDy=0;entryX=0.5;entryY=0;entryDx=0;entryDy=0;strokeColor=#CCCCCC;" edge="1" parent="1" source="AQ2B_PwLkIXll5wLbdg6-1" target="AQ2B_PwLkIXll5wLbdg6-6">
          <mxGeometry width="50" height="50" relative="1" as="geometry">
            <mxPoint x="190" y="200" as="sourcePoint" />
            <mxPoint x="30" y="460" as="targetPoint" />
            <Array as="points">
              <mxPoint x="-60" y="260" />
            </Array>
          </mxGeometry>
        </mxCell>
        <mxCell id="AQ2B_PwLkIXll5wLbdg6-68" value="" style="curved=1;endArrow=classic;html=1;rounded=0;exitX=0.5;exitY=1;exitDx=0;exitDy=0;entryX=0.5;entryY=0;entryDx=0;entryDy=0;strokeColor=#CCCCCC;" edge="1" parent="1" source="AQ2B_PwLkIXll5wLbdg6-1" target="AQ2B_PwLkIXll5wLbdg6-8">
          <mxGeometry width="50" height="50" relative="1" as="geometry">
            <mxPoint x="40" y="130" as="sourcePoint" />
            <mxPoint x="-120" y="390" as="targetPoint" />
            <Array as="points">
              <mxPoint x="220" y="240" />
            </Array>
          </mxGeometry>
        </mxCell>
        <mxCell id="AQ2B_PwLkIXll5wLbdg6-69" value="" style="curved=1;endArrow=classic;html=1;rounded=0;exitX=0.5;exitY=1;exitDx=0;exitDy=0;entryX=0.5;entryY=0;entryDx=0;entryDy=0;strokeColor=#CCCCCC;" edge="1" parent="1" source="AQ2B_PwLkIXll5wLbdg6-14" target="AQ2B_PwLkIXll5wLbdg6-19">
          <mxGeometry width="50" height="50" relative="1" as="geometry">
            <mxPoint x="1100" y="290" as="sourcePoint" />
            <mxPoint x="940" y="550" as="targetPoint" />
            <Array as="points">
              <mxPoint x="820" y="430" />
            </Array>
          </mxGeometry>
        </mxCell>
        <mxCell id="AQ2B_PwLkIXll5wLbdg6-70" value="" style="endArrow=classic;html=1;rounded=0;exitX=0.5;exitY=1;exitDx=0;exitDy=0;strokeColor=#CCCCCC;" edge="1" parent="1" source="AQ2B_PwLkIXll5wLbdg6-2" target="AQ2B_PwLkIXll5wLbdg6-17">
          <mxGeometry width="50" height="50" relative="1" as="geometry">
            <mxPoint x="410" y="250" as="sourcePoint" />
            <mxPoint x="410" y="350" as="targetPoint" />
          </mxGeometry>
        </mxCell>
        <mxCell id="AQ2B_PwLkIXll5wLbdg6-71" value="" style="curved=1;endArrow=classic;html=1;rounded=0;exitX=0.5;exitY=1;exitDx=0;exitDy=0;entryX=0.5;entryY=0;entryDx=0;entryDy=0;strokeColor=#CCCCCC;" edge="1" parent="1" source="AQ2B_PwLkIXll5wLbdg6-1" target="AQ2B_PwLkIXll5wLbdg6-7">
          <mxGeometry width="50" height="50" relative="1" as="geometry">
            <mxPoint x="300" y="210" as="sourcePoint" />
            <mxPoint x="-20" y="490" as="targetPoint" />
            <Array as="points">
              <mxPoint x="70" y="240" />
            </Array>
          </mxGeometry>
        </mxCell>
        <mxCell id="AQ2B_PwLkIXll5wLbdg6-72" value="settings_wifi" style="rounded=1;whiteSpace=wrap;html=1;fillColor=#d5e8d4;strokeColor=#82b366;" vertex="1" parent="1">
          <mxGeometry x="600" y="290" width="120" height="60" as="geometry" />
        </mxCell>
        <mxCell id="AQ2B_PwLkIXll5wLbdg6-73" value="common_thread_objects" style="rounded=1;whiteSpace=wrap;html=1;fillColor=#d5e8d4;strokeColor=#82b366;" vertex="1" parent="1">
          <mxGeometry x="950" y="290" width="140" height="60" as="geometry" />
        </mxCell>
        <mxCell id="AQ2B_PwLkIXll5wLbdg6-74" value="All threads" style="text;html=1;align=center;verticalAlign=middle;whiteSpace=wrap;rounded=0;" vertex="1" parent="1">
          <mxGeometry x="1030" y="250" width="80" height="30" as="geometry" />
        </mxCell>
        <mxCell id="AQ2B_PwLkIXll5wLbdg6-75" value="" style="endArrow=classic;html=1;rounded=0;entryX=0.5;entryY=0;entryDx=0;entryDy=0;strokeColor=#CCCCCC;" edge="1" parent="1" target="AQ2B_PwLkIXll5wLbdg6-73">
          <mxGeometry width="50" height="50" relative="1" as="geometry">
            <mxPoint x="1020" y="250" as="sourcePoint" />
            <mxPoint x="1030" y="270" as="targetPoint" />
          </mxGeometry>
        </mxCell>
        <mxCell id="AQ2B_PwLkIXll5wLbdg6-76" value="" style="curved=1;endArrow=classic;html=1;rounded=0;exitX=0.5;exitY=1;exitDx=0;exitDy=0;entryX=0.5;entryY=0;entryDx=0;entryDy=0;strokeColor=#CCCCCC;" edge="1" parent="1" source="AQ2B_PwLkIXll5wLbdg6-4" target="AQ2B_PwLkIXll5wLbdg6-72">
          <mxGeometry width="50" height="50" relative="1" as="geometry">
            <mxPoint x="570" y="200" as="sourcePoint" />
            <mxPoint x="490" y="460" as="targetPoint" />
            <Array as="points">
              <mxPoint x="660" y="220" />
            </Array>
          </mxGeometry>
        </mxCell>
        <mxCell id="AQ2B_PwLkIXll5wLbdg6-77" value="" style="endArrow=classic;html=1;rounded=0;entryX=0.5;entryY=0;entryDx=0;entryDy=0;strokeColor=#CCCCCC;" edge="1" parent="1">
          <mxGeometry width="50" height="50" relative="1" as="geometry">
            <mxPoint x="1012" y="47.66" as="sourcePoint" />
            <mxPoint x="1062" y="47.66" as="targetPoint" />
          </mxGeometry>
        </mxCell>
        <mxCell id="AQ2B_PwLkIXll5wLbdg6-78" value="Dependencies" style="text;html=1;align=center;verticalAlign=middle;whiteSpace=wrap;rounded=0;" vertex="1" parent="1">
          <mxGeometry x="1072" y="33" width="90" height="30" as="geometry" />
        </mxCell>
        <mxCell id="AQ2B_PwLkIXll5wLbdg6-79" value="RTOS notification" style="text;html=1;align=center;verticalAlign=middle;whiteSpace=wrap;rounded=0;" vertex="1" parent="1">
          <mxGeometry x="1072" y="63" width="110" height="30" as="geometry" />
        </mxCell>
        <mxCell id="AQ2B_PwLkIXll5wLbdg6-81" value="RTOS queue" style="text;html=1;align=center;verticalAlign=middle;whiteSpace=wrap;rounded=0;" vertex="1" parent="1">
          <mxGeometry x="1072" y="93" width="90" height="30" as="geometry" />
        </mxCell>
        <mxCell id="AQ2B_PwLkIXll5wLbdg6-82" value="RTOS mutex" style="text;html=1;align=center;verticalAlign=middle;whiteSpace=wrap;rounded=0;" vertex="1" parent="1">
          <mxGeometry x="1072" y="123" width="90" height="30" as="geometry" />
        </mxCell>
        <mxCell id="AQ2B_PwLkIXll5wLbdg6-83" value="" style="endArrow=classic;html=1;rounded=0;entryX=0.5;entryY=0;entryDx=0;entryDy=0;strokeColor=#000000;dashed=1;dashPattern=1 4;" edge="1" parent="1">
          <mxGeometry width="50" height="50" relative="1" as="geometry">
            <mxPoint x="1012" y="77.72999999999999" as="sourcePoint" />
            <mxPoint x="1062" y="77.72999999999999" as="targetPoint" />
          </mxGeometry>
        </mxCell>
        <mxCell id="AQ2B_PwLkIXll5wLbdg6-90" value="N" style="edgeLabel;html=1;align=center;verticalAlign=middle;resizable=0;points=[];fontColor=#000000;" connectable="0" vertex="1" parent="AQ2B_PwLkIXll5wLbdg6-83">
          <mxGeometry x="-0.1467" relative="1" as="geometry">
            <mxPoint as="offset" />
          </mxGeometry>
        </mxCell>
        <mxCell id="AQ2B_PwLkIXll5wLbdg6-84" value="" style="endArrow=classic;html=1;rounded=0;entryX=0.5;entryY=0;entryDx=0;entryDy=0;strokeColor=#000000;dashed=1;" edge="1" parent="1">
          <mxGeometry width="50" height="50" relative="1" as="geometry">
            <mxPoint x="1012" y="107.85999999999999" as="sourcePoint" />
            <mxPoint x="1062" y="107.85999999999999" as="targetPoint" />
          </mxGeometry>
        </mxCell>
        <mxCell id="AQ2B_PwLkIXll5wLbdg6-88" value="Q" style="edgeLabel;html=1;align=center;verticalAlign=middle;resizable=0;points=[];fontColor=#000000;" connectable="0" vertex="1" parent="AQ2B_PwLkIXll5wLbdg6-84">
          <mxGeometry x="-0.1815" relative="1" as="geometry">
            <mxPoint as="offset" />
          </mxGeometry>
        </mxCell>
        <mxCell id="AQ2B_PwLkIXll5wLbdg6-85" value="M" style="rounded=0;whiteSpace=wrap;html=1;strokeColor=#999999;fontColor=#999999;" vertex="1" parent="1">
          <mxGeometry x="1042" y="128" width="20" height="20" as="geometry" />
        </mxCell>
        <mxCell id="AQ2B_PwLkIXll5wLbdg6-95" value="" style="curved=1;endArrow=classic;html=1;rounded=0;exitX=0.5;exitY=1;exitDx=0;exitDy=0;entryX=0.5;entryY=0;entryDx=0;entryDy=0;strokeColor=#CCCCCC;" edge="1" parent="1" source="AQ2B_PwLkIXll5wLbdg6-18" target="AQ2B_PwLkIXll5wLbdg6-9">
          <mxGeometry width="50" height="50" relative="1" as="geometry">
            <mxPoint x="100" y="660" as="sourcePoint" />
            <mxPoint x="260" y="760" as="targetPoint" />
            <Array as="points">
              <mxPoint y="720" />
            </Array>
          </mxGeometry>
        </mxCell>
        <mxCell id="AQ2B_PwLkIXll5wLbdg6-96" value="" style="curved=1;endArrow=classic;html=1;rounded=0;exitX=0.5;exitY=1;exitDx=0;exitDy=0;entryX=0.5;entryY=0;entryDx=0;entryDy=0;strokeColor=#CCCCCC;" edge="1" parent="1" source="AQ2B_PwLkIXll5wLbdg6-16" target="AQ2B_PwLkIXll5wLbdg6-9">
          <mxGeometry width="50" height="50" relative="1" as="geometry">
            <mxPoint x="-280" y="640" as="sourcePoint" />
            <mxPoint x="-120" y="740" as="targetPoint" />
            <Array as="points">
              <mxPoint x="250" y="730" />
            </Array>
          </mxGeometry>
        </mxCell>
        <mxCell id="AQ2B_PwLkIXll5wLbdg6-97" value="" style="curved=1;endArrow=classic;html=1;rounded=0;exitX=0.5;exitY=1;exitDx=0;exitDy=0;strokeColor=#CCCCCC;entryX=0.5;entryY=0;entryDx=0;entryDy=0;" edge="1" parent="1" source="AQ2B_PwLkIXll5wLbdg6-17" target="AQ2B_PwLkIXll5wLbdg6-9">
          <mxGeometry width="50" height="50" relative="1" as="geometry">
            <mxPoint x="450" y="620" as="sourcePoint" />
            <mxPoint x="290" y="730" as="targetPoint" />
            <Array as="points">
              <mxPoint x="-40" y="740" />
            </Array>
          </mxGeometry>
        </mxCell>
        <mxCell id="AQ2B_PwLkIXll5wLbdg6-98" value="" style="curved=1;endArrow=classic;html=1;rounded=0;exitX=0.5;exitY=1;exitDx=0;exitDy=0;strokeColor=#CCCCCC;" edge="1" parent="1" source="AQ2B_PwLkIXll5wLbdg6-13">
          <mxGeometry width="50" height="50" relative="1" as="geometry">
            <mxPoint x="410" y="590" as="sourcePoint" />
            <mxPoint x="390" y="770" as="targetPoint" />
            <Array as="points">
              <mxPoint x="570" y="740" />
            </Array>
          </mxGeometry>
        </mxCell>
        <mxCell id="AQ2B_PwLkIXll5wLbdg6-99" value="" style="curved=1;endArrow=classic;html=1;rounded=0;exitX=0.5;exitY=1;exitDx=0;exitDy=0;strokeColor=#CCCCCC;entryX=0.5;entryY=0;entryDx=0;entryDy=0;" edge="1" parent="1" source="AQ2B_PwLkIXll5wLbdg6-19" target="AQ2B_PwLkIXll5wLbdg6-9">
          <mxGeometry width="50" height="50" relative="1" as="geometry">
            <mxPoint x="720" y="690" as="sourcePoint" />
            <mxPoint x="530" y="790" as="targetPoint" />
            <Array as="points">
              <mxPoint x="750" y="740" />
            </Array>
          </mxGeometry>
        </mxCell>
        <mxCell id="AQ2B_PwLkIXll5wLbdg6-100" value="" style="curved=1;endArrow=classic;html=1;rounded=0;exitX=0.5;exitY=1;exitDx=0;exitDy=0;strokeColor=#CCCCCC;entryX=0.5;entryY=0;entryDx=0;entryDy=0;" edge="1" parent="1" source="AQ2B_PwLkIXll5wLbdg6-15" target="AQ2B_PwLkIXll5wLbdg6-9">
          <mxGeometry width="50" height="50" relative="1" as="geometry">
            <mxPoint x="1070" y="640" as="sourcePoint" />
            <mxPoint x="1150" y="740" as="targetPoint" />
            <Array as="points">
              <mxPoint x="900" y="730" />
            </Array>
          </mxGeometry>
        </mxCell>
        <mxCell id="AQ2B_PwLkIXll5wLbdg6-125" value="" style="curved=1;endArrow=classic;html=1;rounded=0;exitX=0.5;exitY=1;exitDx=0;exitDy=0;entryX=0.5;entryY=0;entryDx=0;entryDy=0;strokeColor=#CCCCCC;" edge="1" parent="1" source="AQ2B_PwLkIXll5wLbdg6-1" target="AQ2B_PwLkIXll5wLbdg6-10">
          <mxGeometry width="50" height="50" relative="1" as="geometry">
            <mxPoint x="40" y="180" as="sourcePoint" />
            <mxPoint x="110" y="460" as="targetPoint" />
            <Array as="points">
              <mxPoint x="-180" y="200" />
            </Array>
          </mxGeometry>
        </mxCell>
        <mxCell id="AQ2B_PwLkIXll5wLbdg6-128" value="" style="endArrow=classic;html=1;strokeColor=#000000;dashed=1;dashPattern=1 4;curved=1;startArrow=none;startFill=0;entryX=0.75;entryY=0;entryDx=0;entryDy=0;exitX=1;exitY=0.25;exitDx=0;exitDy=0;" edge="1" parent="1" source="AQ2B_PwLkIXll5wLbdg6-2" target="AQ2B_PwLkIXll5wLbdg6-7">
          <mxGeometry width="50" height="50" relative="1" as="geometry">
            <mxPoint x="-430" y="340" as="sourcePoint" />
            <mxPoint x="190" y="420" as="targetPoint" />
            <Array as="points">
              <mxPoint x="70" y="200" />
            </Array>
          </mxGeometry>
        </mxCell>
        <mxCell id="AQ2B_PwLkIXll5wLbdg6-129" value="N" style="edgeLabel;html=1;align=center;verticalAlign=middle;resizable=0;points=[];fontColor=#000000;" connectable="0" vertex="1" parent="AQ2B_PwLkIXll5wLbdg6-128">
          <mxGeometry x="-0.1467" relative="1" as="geometry">
            <mxPoint x="-154" y="-23" as="offset" />
          </mxGeometry>
        </mxCell>
        <mxCell id="AQ2B_PwLkIXll5wLbdg6-130" value="" style="endArrow=classic;html=1;strokeColor=#000000;dashed=1;dashPattern=1 4;curved=1;startArrow=none;startFill=0;exitX=1;exitY=0.25;exitDx=0;exitDy=0;entryX=0.75;entryY=0;entryDx=0;entryDy=0;" edge="1" parent="1" source="AQ2B_PwLkIXll5wLbdg6-2" target="AQ2B_PwLkIXll5wLbdg6-8">
          <mxGeometry width="50" height="50" relative="1" as="geometry">
            <mxPoint x="-410" y="90" as="sourcePoint" />
            <mxPoint x="320" y="370" as="targetPoint" />
            <Array as="points">
              <mxPoint x="90" y="150" />
            </Array>
          </mxGeometry>
        </mxCell>
        <mxCell id="AQ2B_PwLkIXll5wLbdg6-131" value="N" style="edgeLabel;html=1;align=center;verticalAlign=middle;resizable=0;points=[];fontColor=#000000;" connectable="0" vertex="1" parent="AQ2B_PwLkIXll5wLbdg6-130">
          <mxGeometry x="-0.1467" relative="1" as="geometry">
            <mxPoint x="-199" y="-5" as="offset" />
          </mxGeometry>
        </mxCell>
        <mxCell id="AQ2B_PwLkIXll5wLbdg6-134" value="" style="endArrow=classic;html=1;entryX=0.25;entryY=0;entryDx=0;entryDy=0;strokeColor=#000000;dashed=1;curved=1;exitX=0.75;exitY=0;exitDx=0;exitDy=0;" edge="1" parent="1" source="AQ2B_PwLkIXll5wLbdg6-1" target="AQ2B_PwLkIXll5wLbdg6-3">
          <mxGeometry width="50" height="50" relative="1" as="geometry">
            <mxPoint x="-40" y="124.32999999999998" as="sourcePoint" />
            <mxPoint x="10" y="124.32999999999998" as="targetPoint" />
            <Array as="points">
              <mxPoint x="130" y="90" />
              <mxPoint x="310" y="90" />
            </Array>
          </mxGeometry>
        </mxCell>
        <mxCell id="AQ2B_PwLkIXll5wLbdg6-135" value="Q" style="edgeLabel;html=1;align=center;verticalAlign=middle;resizable=0;points=[];fontColor=#000000;" connectable="0" vertex="1" parent="AQ2B_PwLkIXll5wLbdg6-134">
          <mxGeometry x="-0.1815" relative="1" as="geometry">
            <mxPoint x="-88" y="10" as="offset" />
          </mxGeometry>
        </mxCell>
        <mxCell id="AQ2B_PwLkIXll5wLbdg6-136" value="" style="endArrow=classic;html=1;strokeColor=#000000;dashed=1;curved=1;exitX=0.75;exitY=0;exitDx=0;exitDy=0;entryX=0.25;entryY=0;entryDx=0;entryDy=0;" edge="1" parent="1" source="AQ2B_PwLkIXll5wLbdg6-3" target="AQ2B_PwLkIXll5wLbdg6-4">
          <mxGeometry width="50" height="50" relative="1" as="geometry">
            <mxPoint x="425" y="70" as="sourcePoint" />
            <mxPoint x="630" y="80" as="targetPoint" />
            <Array as="points">
              <mxPoint x="490" y="90" />
            </Array>
          </mxGeometry>
        </mxCell>
        <mxCell id="AQ2B_PwLkIXll5wLbdg6-137" value="Q" style="edgeLabel;html=1;align=center;verticalAlign=middle;resizable=0;points=[];fontColor=#000000;" connectable="0" vertex="1" parent="AQ2B_PwLkIXll5wLbdg6-136">
          <mxGeometry x="-0.1815" relative="1" as="geometry">
            <mxPoint y="10" as="offset" />
          </mxGeometry>
        </mxCell>
        <mxCell id="AQ2B_PwLkIXll5wLbdg6-138" value="" style="endArrow=classic;html=1;strokeColor=#000000;dashed=1;curved=1;entryX=0.25;entryY=0;entryDx=0;entryDy=0;" edge="1" parent="1" target="AQ2B_PwLkIXll5wLbdg6-5">
          <mxGeometry width="50" height="50" relative="1" as="geometry">
            <mxPoint x="450" y="110" as="sourcePoint" />
            <mxPoint x="580" y="50" as="targetPoint" />
            <Array as="points">
              <mxPoint x="470" y="70" />
              <mxPoint x="570" y="60" />
              <mxPoint x="690" y="70" />
            </Array>
          </mxGeometry>
        </mxCell>
        <mxCell id="AQ2B_PwLkIXll5wLbdg6-139" value="Q" style="edgeLabel;html=1;align=center;verticalAlign=middle;resizable=0;points=[];fontColor=#000000;" connectable="0" vertex="1" parent="AQ2B_PwLkIXll5wLbdg6-138">
          <mxGeometry x="-0.1815" relative="1" as="geometry">
            <mxPoint x="-11" y="1" as="offset" />
          </mxGeometry>
        </mxCell>
        <mxCell id="AQ2B_PwLkIXll5wLbdg6-140" value="" style="endArrow=classic;html=1;strokeColor=#000000;dashed=1;curved=1;exitX=0.25;exitY=1;exitDx=0;exitDy=0;entryX=0.75;entryY=1;entryDx=0;entryDy=0;" edge="1" parent="1" source="AQ2B_PwLkIXll5wLbdg6-4" target="AQ2B_PwLkIXll5wLbdg6-3">
          <mxGeometry width="50" height="50" relative="1" as="geometry">
            <mxPoint x="460" y="220" as="sourcePoint" />
            <mxPoint x="560" y="220" as="targetPoint" />
            <Array as="points">
              <mxPoint x="500" y="230" />
            </Array>
          </mxGeometry>
        </mxCell>
        <mxCell id="AQ2B_PwLkIXll5wLbdg6-141" value="Q" style="edgeLabel;html=1;align=center;verticalAlign=middle;resizable=0;points=[];fontColor=#000000;" connectable="0" vertex="1" parent="AQ2B_PwLkIXll5wLbdg6-140">
          <mxGeometry x="-0.1815" relative="1" as="geometry">
            <mxPoint x="1" y="-21" as="offset" />
          </mxGeometry>
        </mxCell>
        <mxCell id="AQ2B_PwLkIXll5wLbdg6-142" value="" style="endArrow=classic;html=1;strokeColor=#000000;dashed=1;curved=1;exitX=0.25;exitY=1;exitDx=0;exitDy=0;" edge="1" parent="1" source="AQ2B_PwLkIXll5wLbdg6-5">
          <mxGeometry width="50" height="50" relative="1" as="geometry">
            <mxPoint x="470" y="245" as="sourcePoint" />
            <mxPoint x="450" y="170" as="targetPoint" />
            <Array as="points">
              <mxPoint x="710" y="240" />
              <mxPoint x="580" y="260" />
              <mxPoint x="450" y="240" />
            </Array>
          </mxGeometry>
        </mxCell>
        <mxCell id="AQ2B_PwLkIXll5wLbdg6-143" value="Q" style="edgeLabel;html=1;align=center;verticalAlign=middle;resizable=0;points=[];fontColor=#000000;" connectable="0" vertex="1" parent="AQ2B_PwLkIXll5wLbdg6-142">
          <mxGeometry x="-0.1815" relative="1" as="geometry">
            <mxPoint x="54" y="-14" as="offset" />
          </mxGeometry>
        </mxCell>
        <mxCell id="AQ2B_PwLkIXll5wLbdg6-144" value="" style="endArrow=classic;html=1;strokeColor=#000000;dashed=1;dashPattern=1 4;curved=1;startArrow=none;startFill=0;exitX=0.25;exitY=1;exitDx=0;exitDy=0;entryX=0.75;entryY=1;entryDx=0;entryDy=0;" edge="1" parent="1" source="AQ2B_PwLkIXll5wLbdg6-3" target="AQ2B_PwLkIXll5wLbdg6-1">
          <mxGeometry width="50" height="50" relative="1" as="geometry">
            <mxPoint x="390" y="240" as="sourcePoint" />
            <mxPoint x="150" y="260" as="targetPoint" />
            <Array as="points">
              <mxPoint x="230" y="220" />
            </Array>
          </mxGeometry>
        </mxCell>
        <mxCell id="AQ2B_PwLkIXll5wLbdg6-145" value="N" style="edgeLabel;html=1;align=center;verticalAlign=middle;resizable=0;points=[];fontColor=#000000;" connectable="0" vertex="1" parent="AQ2B_PwLkIXll5wLbdg6-144">
          <mxGeometry x="-0.1467" relative="1" as="geometry">
            <mxPoint x="84" y="-30" as="offset" />
          </mxGeometry>
        </mxCell>
        <mxCell id="AQ2B_PwLkIXll5wLbdg6-146" value="" style="endArrow=classic;html=1;strokeColor=#000000;dashed=1;dashPattern=1 4;curved=1;startArrow=none;startFill=0;entryX=0.75;entryY=0;entryDx=0;entryDy=0;exitX=1;exitY=0.25;exitDx=0;exitDy=0;" edge="1" parent="1" source="AQ2B_PwLkIXll5wLbdg6-2" target="AQ2B_PwLkIXll5wLbdg6-6">
          <mxGeometry width="50" height="50" relative="1" as="geometry">
            <mxPoint x="-310" y="230" as="sourcePoint" />
            <mxPoint x="140" y="525" as="targetPoint" />
            <Array as="points">
              <mxPoint x="-40" y="220" />
            </Array>
          </mxGeometry>
        </mxCell>
        <mxCell id="AQ2B_PwLkIXll5wLbdg6-147" value="N" style="edgeLabel;html=1;align=center;verticalAlign=middle;resizable=0;points=[];fontColor=#000000;" connectable="0" vertex="1" parent="AQ2B_PwLkIXll5wLbdg6-146">
          <mxGeometry x="-0.1467" relative="1" as="geometry">
            <mxPoint x="-92" y="-17" as="offset" />
          </mxGeometry>
        </mxCell>
        <mxCell id="AQ2B_PwLkIXll5wLbdg6-148" value="" style="endArrow=classic;html=1;strokeColor=#000000;dashed=1;dashPattern=1 4;curved=1;startArrow=none;startFill=0;exitX=0.25;exitY=0;exitDx=0;exitDy=0;entryX=0.75;entryY=1;entryDx=0;entryDy=0;" edge="1" parent="1" source="AQ2B_PwLkIXll5wLbdg6-6" target="AQ2B_PwLkIXll5wLbdg6-2">
          <mxGeometry width="50" height="50" relative="1" as="geometry">
            <mxPoint x="-230" y="480" as="sourcePoint" />
            <mxPoint x="-770" y="330" as="targetPoint" />
            <Array as="points">
              <mxPoint x="-90" y="230" />
            </Array>
          </mxGeometry>
        </mxCell>
        <mxCell id="AQ2B_PwLkIXll5wLbdg6-149" value="N" style="edgeLabel;html=1;align=center;verticalAlign=middle;resizable=0;points=[];fontColor=#000000;" connectable="0" vertex="1" parent="AQ2B_PwLkIXll5wLbdg6-148">
          <mxGeometry x="-0.1467" relative="1" as="geometry">
            <mxPoint y="178" as="offset" />
          </mxGeometry>
        </mxCell>
        <mxCell id="AQ2B_PwLkIXll5wLbdg6-150" value="" style="endArrow=classic;html=1;strokeColor=#000000;dashed=1;dashPattern=1 4;curved=1;startArrow=none;startFill=0;exitX=0.25;exitY=0;exitDx=0;exitDy=0;entryX=0.75;entryY=1;entryDx=0;entryDy=0;" edge="1" parent="1" source="AQ2B_PwLkIXll5wLbdg6-7" target="AQ2B_PwLkIXll5wLbdg6-2">
          <mxGeometry width="50" height="50" relative="1" as="geometry">
            <mxPoint x="-130" y="510" as="sourcePoint" />
            <mxPoint x="-390" y="230" as="targetPoint" />
            <Array as="points">
              <mxPoint x="-40" y="230" />
            </Array>
          </mxGeometry>
        </mxCell>
        <mxCell id="AQ2B_PwLkIXll5wLbdg6-151" value="N" style="edgeLabel;html=1;align=center;verticalAlign=middle;resizable=0;points=[];fontColor=#000000;" connectable="0" vertex="1" parent="AQ2B_PwLkIXll5wLbdg6-150">
          <mxGeometry x="-0.1467" relative="1" as="geometry">
            <mxPoint x="87" y="184" as="offset" />
          </mxGeometry>
        </mxCell>
        <mxCell id="AQ2B_PwLkIXll5wLbdg6-152" value="" style="endArrow=classic;html=1;strokeColor=#000000;dashed=1;dashPattern=1 4;curved=1;startArrow=none;startFill=0;exitX=0.25;exitY=0;exitDx=0;exitDy=0;entryX=0.75;entryY=1;entryDx=0;entryDy=0;" edge="1" parent="1" source="AQ2B_PwLkIXll5wLbdg6-8" target="AQ2B_PwLkIXll5wLbdg6-2">
          <mxGeometry width="50" height="50" relative="1" as="geometry">
            <mxPoint x="-250" y="490" as="sourcePoint" />
            <mxPoint x="-510" y="210" as="targetPoint" />
            <Array as="points">
              <mxPoint x="10" y="210" />
            </Array>
          </mxGeometry>
        </mxCell>
        <mxCell id="AQ2B_PwLkIXll5wLbdg6-153" value="N" style="edgeLabel;html=1;align=center;verticalAlign=middle;resizable=0;points=[];fontColor=#000000;" connectable="0" vertex="1" parent="AQ2B_PwLkIXll5wLbdg6-152">
          <mxGeometry x="-0.1467" relative="1" as="geometry">
            <mxPoint x="168" y="186" as="offset" />
          </mxGeometry>
        </mxCell>
        <mxCell id="AQ2B_PwLkIXll5wLbdg6-154" value="M" style="rounded=0;whiteSpace=wrap;html=1;strokeColor=#999999;fontColor=#999999;" vertex="1" parent="1">
          <mxGeometry x="850" y="590" width="20" height="20" as="geometry" />
        </mxCell>
        <mxCell id="AQ2B_PwLkIXll5wLbdg6-157" value="M" style="rounded=0;whiteSpace=wrap;html=1;strokeColor=#999999;fontColor=#999999;" vertex="1" parent="1">
          <mxGeometry x="690" y="590" width="20" height="20" as="geometry" />
        </mxCell>
        <mxCell id="AQ2B_PwLkIXll5wLbdg6-159" value="&lt;b&gt;&lt;font style=&quot;font-size: 16px;&quot;&gt;Interfaces:&lt;/font&gt;&lt;/b&gt;" style="text;html=1;align=center;verticalAlign=middle;whiteSpace=wrap;rounded=0;" vertex="1" parent="1">
          <mxGeometry x="1012" y="3" width="100" height="30" as="geometry" />
        </mxCell>
        <mxCell id="AQ2B_PwLkIXll5wLbdg6-160" value="" style="curved=1;endArrow=classic;html=1;rounded=0;exitX=0.5;exitY=1;exitDx=0;exitDy=0;entryX=0.5;entryY=0;entryDx=0;entryDy=0;strokeColor=#CCCCCC;" edge="1" parent="1" source="AQ2B_PwLkIXll5wLbdg6-7" target="AQ2B_PwLkIXll5wLbdg6-18">
          <mxGeometry width="50" height="50" relative="1" as="geometry">
            <mxPoint x="150" y="560" as="sourcePoint" />
            <mxPoint x="230" y="660" as="targetPoint" />
            <Array as="points">
              <mxPoint x="100" y="570" />
            </Array>
          </mxGeometry>
        </mxCell>
        <mxCell id="AQ2B_PwLkIXll5wLbdg6-162" value="" style="endArrow=classic;html=1;strokeColor=#000000;dashed=1;dashPattern=1 4;curved=1;startArrow=none;startFill=0;exitX=0.25;exitY=1;exitDx=0;exitDy=0;entryX=0.75;entryY=1;entryDx=0;entryDy=0;" edge="1" parent="1" source="AQ2B_PwLkIXll5wLbdg6-3" target="AQ2B_PwLkIXll5wLbdg6-2">
          <mxGeometry width="50" height="50" relative="1" as="geometry">
            <mxPoint x="420" y="220" as="sourcePoint" />
            <mxPoint x="80" y="220" as="targetPoint" />
            <Array as="points">
              <mxPoint x="260" y="270" />
            </Array>
          </mxGeometry>
        </mxCell>
        <mxCell id="AQ2B_PwLkIXll5wLbdg6-163" value="N" style="edgeLabel;html=1;align=center;verticalAlign=middle;resizable=0;points=[];fontColor=#000000;" connectable="0" vertex="1" parent="AQ2B_PwLkIXll5wLbdg6-162">
          <mxGeometry x="-0.1467" relative="1" as="geometry">
            <mxPoint x="207" y="-33" as="offset" />
          </mxGeometry>
        </mxCell>
        <mxCell id="AQ2B_PwLkIXll5wLbdg6-164" value="" style="endArrow=classic;html=1;strokeColor=#000000;dashed=1;dashPattern=1 4;curved=1;startArrow=none;startFill=0;exitX=0.75;exitY=0;exitDx=0;exitDy=0;entryX=0.25;entryY=0;entryDx=0;entryDy=0;" edge="1" parent="1" source="AQ2B_PwLkIXll5wLbdg6-3" target="AQ2B_PwLkIXll5wLbdg6-4">
          <mxGeometry width="50" height="50" relative="1" as="geometry">
            <mxPoint x="480" y="-10" as="sourcePoint" />
            <mxPoint x="680" y="20" as="targetPoint" />
            <Array as="points">
              <mxPoint x="500" y="60" />
            </Array>
          </mxGeometry>
        </mxCell>
        <mxCell id="AQ2B_PwLkIXll5wLbdg6-165" value="N" style="edgeLabel;html=1;align=center;verticalAlign=middle;resizable=0;points=[];fontColor=#000000;" connectable="0" vertex="1" parent="AQ2B_PwLkIXll5wLbdg6-164">
          <mxGeometry x="-0.1467" relative="1" as="geometry">
            <mxPoint x="7" y="13" as="offset" />
          </mxGeometry>
        </mxCell>
        <mxCell id="AQ2B_PwLkIXll5wLbdg6-166" value="" style="endArrow=classic;html=1;strokeColor=#000000;dashed=1;dashPattern=1 4;curved=1;startArrow=none;startFill=0;exitX=0.75;exitY=0;exitDx=0;exitDy=0;entryX=0.25;entryY=0;entryDx=0;entryDy=0;" edge="1" parent="1" source="AQ2B_PwLkIXll5wLbdg6-3" target="AQ2B_PwLkIXll5wLbdg6-5">
          <mxGeometry width="50" height="50" relative="1" as="geometry">
            <mxPoint x="330" y="50" as="sourcePoint" />
            <mxPoint x="430" y="50" as="targetPoint" />
            <Array as="points">
              <mxPoint x="470" y="60" />
              <mxPoint x="570" y="40" />
              <mxPoint x="710" y="60" />
            </Array>
          </mxGeometry>
        </mxCell>
        <mxCell id="AQ2B_PwLkIXll5wLbdg6-167" value="N" style="edgeLabel;html=1;align=center;verticalAlign=middle;resizable=0;points=[];fontColor=#000000;" connectable="0" vertex="1" parent="AQ2B_PwLkIXll5wLbdg6-166">
          <mxGeometry x="-0.1467" relative="1" as="geometry">
            <mxPoint x="-32" y="7" as="offset" />
          </mxGeometry>
        </mxCell>
        <mxCell id="AQ2B_PwLkIXll5wLbdg6-168" value="" style="endArrow=classic;html=1;strokeColor=#000000;dashed=1;dashPattern=1 4;curved=1;startArrow=none;startFill=0;exitX=0.75;exitY=0;exitDx=0;exitDy=0;entryX=0.25;entryY=0;entryDx=0;entryDy=0;" edge="1" parent="1" source="AQ2B_PwLkIXll5wLbdg6-1" target="AQ2B_PwLkIXll5wLbdg6-3">
          <mxGeometry width="50" height="50" relative="1" as="geometry">
            <mxPoint x="-30" y="60" as="sourcePoint" />
            <mxPoint x="70" y="60" as="targetPoint" />
            <Array as="points">
              <mxPoint x="210" />
            </Array>
          </mxGeometry>
        </mxCell>
        <mxCell id="AQ2B_PwLkIXll5wLbdg6-169" value="N" style="edgeLabel;html=1;align=center;verticalAlign=middle;resizable=0;points=[];fontColor=#000000;" connectable="0" vertex="1" parent="AQ2B_PwLkIXll5wLbdg6-168">
          <mxGeometry x="-0.1467" relative="1" as="geometry">
            <mxPoint x="-92" y="68" as="offset" />
          </mxGeometry>
        </mxCell>
        <mxCell id="AQ2B_PwLkIXll5wLbdg6-170" value="" style="endArrow=classic;html=1;strokeColor=#000000;dashed=1;dashPattern=1 4;curved=1;startArrow=none;startFill=0;exitX=0.75;exitY=0;exitDx=0;exitDy=0;entryX=0.25;entryY=0;entryDx=0;entryDy=0;" edge="1" parent="1" source="AQ2B_PwLkIXll5wLbdg6-2" target="AQ2B_PwLkIXll5wLbdg6-3">
          <mxGeometry width="50" height="50" relative="1" as="geometry">
            <mxPoint x="-300" y="90" as="sourcePoint" />
            <mxPoint x="40" y="90" as="targetPoint" />
            <Array as="points">
              <mxPoint x="-310" y="50" />
              <mxPoint x="-10" y="20" />
              <mxPoint x="330" y="40" />
            </Array>
          </mxGeometry>
        </mxCell>
        <mxCell id="AQ2B_PwLkIXll5wLbdg6-171" value="N" style="edgeLabel;html=1;align=center;verticalAlign=middle;resizable=0;points=[];fontColor=#000000;" connectable="0" vertex="1" parent="AQ2B_PwLkIXll5wLbdg6-170">
          <mxGeometry x="-0.1467" relative="1" as="geometry">
            <mxPoint x="-290" y="67" as="offset" />
          </mxGeometry>
        </mxCell>
        <mxCell id="AQ2B_PwLkIXll5wLbdg6-174" value="" style="endArrow=classic;html=1;strokeColor=#000000;dashed=1;dashPattern=1 4;curved=1;startArrow=none;startFill=0;exitX=0.25;exitY=1;exitDx=0;exitDy=0;entryX=0.75;entryY=1;entryDx=0;entryDy=0;" edge="1" parent="1" source="AQ2B_PwLkIXll5wLbdg6-5" target="AQ2B_PwLkIXll5wLbdg6-3">
          <mxGeometry width="50" height="50" relative="1" as="geometry">
            <mxPoint x="340" y="260" as="sourcePoint" />
            <mxPoint x="440" y="260" as="targetPoint" />
            <Array as="points">
              <mxPoint x="710" y="220" />
              <mxPoint x="600" y="230" />
              <mxPoint x="450" y="220" />
            </Array>
          </mxGeometry>
        </mxCell>
        <mxCell id="AQ2B_PwLkIXll5wLbdg6-175" value="N" style="edgeLabel;html=1;align=center;verticalAlign=middle;resizable=0;points=[];fontColor=#000000;" connectable="0" vertex="1" parent="AQ2B_PwLkIXll5wLbdg6-174">
          <mxGeometry x="-0.1467" relative="1" as="geometry">
            <mxPoint x="64" y="-9" as="offset" />
          </mxGeometry>
        </mxCell>
        <mxCell id="AQ2B_PwLkIXll5wLbdg6-176" value="" style="endArrow=classic;html=1;strokeColor=#000000;dashed=1;dashPattern=1 4;curved=1;startArrow=none;startFill=0;exitX=0.25;exitY=1;exitDx=0;exitDy=0;entryX=0.75;entryY=1;entryDx=0;entryDy=0;" edge="1" parent="1" source="AQ2B_PwLkIXll5wLbdg6-4" target="AQ2B_PwLkIXll5wLbdg6-3">
          <mxGeometry width="50" height="50" relative="1" as="geometry">
            <mxPoint x="610" y="220" as="sourcePoint" />
            <mxPoint x="350" y="220" as="targetPoint" />
            <Array as="points">
              <mxPoint x="500" y="190" />
            </Array>
          </mxGeometry>
        </mxCell>
        <mxCell id="AQ2B_PwLkIXll5wLbdg6-177" value="N" style="edgeLabel;html=1;align=center;verticalAlign=middle;resizable=0;points=[];fontColor=#000000;" connectable="0" vertex="1" parent="AQ2B_PwLkIXll5wLbdg6-176">
          <mxGeometry x="-0.1467" relative="1" as="geometry">
            <mxPoint x="3" y="-7" as="offset" />
          </mxGeometry>
        </mxCell>
      </root>
    </mxGraphModel>
  </diagram>
</mxfile>
